<svg width="400" height="400" xmlns="http://www.w3.org/2000/svg">
  <!-- Background -->
  <rect width="100%" height="100%" fill="#87CEEB"/>
  
  <!-- Sun/Moon -->
  <circle cx="320" cy="80" r="30" fill="#FFD700" stroke="#FF8C00" stroke-width="2"/>
  
  <!-- Distant Mountains -->
  <polygon points="0,180 100,120 200,160 300,100 400,140 400,180" fill="#708090" opacity="0.5"/>
  
  <!-- Ground -->
  <rect x="0" y="180" width="400" height="220" fill="#555"/>
  
  <!-- Buildings -->
  <!-- Building 1 - Skyscraper -->
  <rect x="30" y="60" width="40" height="120" fill="#4682B4"/>
  <rect x="35" y="40" width="30" height="20" fill="#4682B4"/>
  <rect x="45" y="20" width="10" height="20" fill="#4682B4"/>
  
  <!-- Windows for Building 1 -->
  <g fill="#FFD700">
    <rect x="35" y="70" width="8" height="8"/>
    <rect x="57" y="70" width="8" height="8"/>
    <rect x="35" y="90" width="8" height="8"/>
    <rect x="57" y="90" width="8" height="8"/>
    <rect x="35" y="110" width="8" height="8"/>
    <rect x="57" y="110" width="8" height="8"/>
    <rect x="35" y="130" width="8" height="8"/>
    <rect x="57" y="130" width="8" height="8"/>
    <rect x="35" y="150" width="8" height="8"/>
    <rect x="57" y="150" width="8" height="8"/>
  </g>
  
  <!-- Building 2 - Office Building -->
  <rect x="90" y="80" width="60" height="100" fill="#708090"/>
  
  <!-- Windows for Building 2 -->
  <g fill="#F0F8FF">
    <rect x="100" y="90" width="10" height="10"/>
    <rect x="120" y="90" width="10" height="10"/>
    <rect x="140" y="90" width="10" height="10"/>
    
    <rect x="100" y="110" width="10" height="10"/>
    <rect x="120" y="110" width="10" height="10"/>
    <rect x="140" y="110" width="10" height="10"/>
    
    <rect x="100" y="130" width="10" height="10"/>
    <rect x="120" y="130" width="10" height="10"/>
    <rect x="140" y="130" width="10" height="10"/>
    
    <rect x="100" y="150" width="10" height="10"/>
    <rect x="120" y="150" width="10" height="10"/>
    <rect x="140" y="150" width="10" height="10"/>
  </g>
  
  <!-- Building 3 - Modern Tower -->
  <rect x="170" y="40" width="50" height="140" fill="#2F4F4F"/>
  <polygon points="170,40 220,40 195,10" fill="#2F4F4F"/>
  
  <!-- Windows for Building 3 -->
  <g fill="#ADD8E6">
    <rect x="180" y="50" width="30" height="5"/>
    <rect x="180" y="65" width="30" height="5"/>
    <rect x="180" y="80" width="30" height="5"/>
    <rect x="180" y="95" width="30" height="5"/>
    <rect x="180" y="110" width="30" height="5"/>
    <rect x="180" y="125" width="30" height="5"/>
    <rect x="180" y="140" width="30" height="5"/>
    <rect x="180" y="155" width="30" height="5"/>
    <rect x="180" y="170" width="30" height="5"/>
  </g>
  
  <!-- Building 4 - Apartment Complex -->
  <rect x="240" y="100" width="70" height="80" fill="#CD853F"/>
  
  <!-- Windows for Building 4 -->
  <g fill="#FFDEAD">
    <rect x="250" y="110" width="10" height="15"/>
    <rect x="270" y="110" width="10" height="15"/>
    <rect x="290" y="110" width="10" height="15"/>
    
    <rect x="250" y="135" width="10" height="15"/>
    <rect x="270" y="135" width="10" height="15"/>
    <rect x="290" y="135" width="10" height="15"/>
    
    <rect x="250" y="160" width="10" height="15"/>
    <rect x="270" y="160" width="10" height="15"/>
    <rect x="290" y="160" width="10" height="15"/>
  </g>
  
  <!-- Building 5 - Small Shop -->
  <rect x="330" y="130" width="50" height="50" fill="#8B4513"/>
  <polygon points="330,130 380,130 355,110" fill="#A52A2A"/>
  
  <!-- Door and Window for Building 5 -->
  <rect x="345" y="155" width="20" height="25" fill="#DEB887"/>
  <rect x="340" y="140" width="15" height="10" fill="#F0F8FF"/>
  <rect x="365" y="140" width="15" height="10" fill="#F0F8FF"/>
  
  <!-- Road -->
  <rect x="0" y="180" width="400" height="40" fill="#333"/>
  
  <!-- Road Markings -->
  <g fill="#FFF">
    <rect x="20" y="198" width="30" height="4"/>
    <rect x="70" y="198" width="30" height="4"/>
    <rect x="120" y="198" width="30" height="4"/>
    <rect x="170" y="198" width="30" height="4"/>
    <rect x="220" y="198" width="30" height="4"/>
    <rect x="270" y="198" width="30" height="4"/>
    <rect x="320" y="198" width="30" height="4"/>
    <rect x="370" y="198" width="30" height="4"/>
  </g>
  
  <!-- Cars -->
  <g>
    <!-- Car 1 -->
    <rect x="50" y="185" width="30" height="10" fill="#FF0000" rx="2" ry="2"/>
    <rect x="55" y="180" width="20" height="5" fill="#FF0000" rx="1" ry="1"/>
    <circle cx="55" cy="195" r="3" fill="#333"/>
    <circle cx="75" cy="195" r="3" fill="#333"/>
    
    <!-- Car 2 -->
    <rect x="150" y="190" width="30" height="10" fill="#0000FF" rx="2" ry="2"/>
    <rect x="155" y="185" width="20" height="5" fill="#0000FF" rx="1" ry="1"/>
    <circle cx="155" cy="200" r="3" fill="#333"/>
    <circle cx="175" cy="200" r="3" fill="#333"/>
    
    <!-- Car 3 -->
    <rect x="250" y="185" width="30" height="10" fill="#00FF00" rx="2" ry="2"/>
    <rect x="255" y="180" width="20" height="5" fill="#00FF00" rx="1" ry="1"/>
    <circle cx="255" cy="195" r="3" fill="#333"/>
    <circle cx="275" cy="195" r="3" fill="#333"/>
    
    <!-- Car 4 -->
    <rect x="350" y="190" width="30" height="10" fill="#FFFF00" rx="2" ry="2"/>
    <rect x="355" y="185" width="20" height="5" fill="#FFFF00" rx="1" ry="1"/>
    <circle cx="355" cy="200" r="3" fill="#333"/>
    <circle cx="375" cy="200" r="3" fill="#333"/>
  </g>
  
  <!-- Sidewalk -->
  <rect x="0" y="220" width="400" height="20" fill="#A9A9A9"/>
  
  <!-- People -->
  <g>
    <!-- Person 1 -->
    <circle cx="30" cy="230" r="3" fill="#000"/>
    <line x1="30" y1="233" x2="30" y2="240" stroke="#000" stroke-width="1"/>
    <line x1="30" y1="235" x2="27" y2="238" stroke="#000" stroke-width="1"/>
    <line x1="30" y1="235" x2="33" y2="238" stroke="#000" stroke-width="1"/>
    <line x1="30" y1="240" x2="27" y2="245" stroke="#000" stroke-width="1"/>
    <line x1="30" y1="240" x2="33" y2="245" stroke="#000" stroke-width="1"/>
    
    <!-- Person 2 -->
    <circle cx="100" cy="230" r="3" fill="#000"/>
    <line x1="100" y1="233" x2="100" y2="240" stroke="#000" stroke-width="1"/>
    <line x1="100" y1="235" x2="97" y2="238" stroke="#000" stroke-width="1"/>
    <line x1="100" y1="235" x2="103" y2="238" stroke="#000" stroke-width="1"/>
    <line x1="100" y1="240" x2="97" y2="245" stroke="#000" stroke-width="1"/>
    <line x1="100" y1="240" x2="103" y2="245" stroke="#000" stroke-width="1"/>
    
    <!-- Person 3 -->
    <circle cx="200" cy="230" r="3" fill="#000"/>
    <line x1="200" y1="233" x2="200" y2="240" stroke="#000" stroke-width="1"/>
    <line x1="200" y1="235" x2="197" y2="238" stroke="#000" stroke-width="1"/>
    <line x1="200" y1="235" x2="203" y2="238" stroke="#000" stroke-width="1"/>
    <line x1="200" y1="240" x2="197" y2="245" stroke="#000" stroke-width="1"/>
    <line x1="200" y1="240" x2="203" y2="245" stroke="#000" stroke-width="1"/>
    
    <!-- Person 4 -->
    <circle cx="300" cy="230" r="3" fill="#000"/>
    <line x1="300" y1="233" x2="300" y2="240" stroke="#000" stroke-width="1"/>
    <line x1="300" y1="235" x2="297" y2="238" stroke="#000" stroke-width="1"/>
    <line x1="300" y1="235" x2="303" y2="238" stroke="#000" stroke-width="1"/>
    <line x1="300" y1="240" x2="297" y2="245" stroke="#000" stroke-width="1"/>
    <line x1="300" y1="240" x2="303" y2="245" stroke="#000" stroke-width="1"/>
  </g>
  
  <!-- Trees along sidewalk -->
  <g>
    <circle cx="50" cy="230" r="5" fill="#228B22"/>
    <rect x="49" y="235" width="2" height="5" fill="#8B4513"/>
    
    <circle cx="150" cy="230" r="5" fill="#228B22"/>
    <rect x="149" y="235" width="2" height="5" fill="#8B4513"/>
    
    <circle cx="250" cy="230" r="5" fill="#228B22"/>
    <rect x="249" y="235" width="2" height="5" fill="#8B4513"/>
    
    <circle cx="350" cy="230" r="5" fill="#228B22"/>
    <rect x="349" y="235" width="2" height="5" fill="#8B4513"/>
  </g>
  
  <!-- Park/Green Space -->
  <rect x="0" y="240" width="400" height="160" fill="#228B22"/>
  
  <!-- Park Path -->
  <path d="M0,320 C100,280 300,360 400,300" stroke="#DEB887" stroke-width="10" fill="none"/>
  
  <!-- Park Benches -->
  <rect x="80" y="300" width="20" height="5" fill="#8B4513"/>
  <rect x="82" y="305" width="2" height="10" fill="#8B4513"/>
  <rect x="96" y="305" width="2" height="10" fill="#8B4513"/>
  
  <rect x="280" y="280" width="20" height="5" fill="#8B4513"/>
  <rect x="282" y="285" width="2" height="10" fill="#8B4513"/>
  <rect x="296" y="285" width="2" height="10" fill="#8B4513"/>
  
  <!-- Park Trees -->
  <g>
    <circle cx="40" cy="280" r="15" fill="#228B22"/>
    <rect x="37" y="295" width="6" height="15" fill="#8B4513"/>
    
    <circle cx="140" cy="350" r="15" fill="#228B22"/>
    <rect x="137" y="365" width="6" height="15" fill="#8B4513"/>
    
    <circle cx="240" cy="320" r="15" fill="#228B22"/>
    <rect x="237" y="335" width="6" height="15" fill="#8B4513"/>
    
    <circle cx="340" cy="370" r="15" fill="#228B22"/>
    <rect x="337" y="385" width="6" height="15" fill="#8B4513"/>
  </g>
  
  <!-- Clouds -->
  <g fill="#FFF">
    <ellipse cx="80" cy="40" rx="30" ry="15"/>
    <ellipse cx="110" cy="45" rx="35" ry="20"/>
    <ellipse cx="140" cy="35" rx="25" ry="10"/>
    
    <ellipse cx="240" cy="30" rx="25" ry="10"/>
    <ellipse cx="270" cy="35" rx="30" ry="15"/>
    <ellipse cx="300" cy="25" rx="20" ry="8"/>
  </g>
</svg>